<svg width="566" height="406" viewBox="0 0 566 406" fill="none" xmlns="http://www.w3.org/2000/svg">
<path d="M457.62 257.879C458.126 257.926 458.634 257.816 459.075 257.565C459.516 257.314 459.869 256.933 460.086 256.474C460.304 256.015 460.375 255.501 460.29 255C460.205 254.5 459.969 254.037 459.612 253.676C459.562 253.425 459.525 253.245 459.474 252.994C459.499 252.941 459.524 252.888 459.549 252.835C460.116 251.654 461.019 250.666 462.145 249.996C463.271 249.325 464.57 249.003 465.879 249.069C467.188 249.135 468.448 249.586 469.501 250.365C470.555 251.145 471.354 252.219 471.799 253.451C473.578 258.371 475.905 263.324 476.295 268.456C476.467 270.725 476.244 273.006 475.636 275.198C480.82 265.151 483.784 254.106 484.325 242.812C484.458 239.978 484.432 237.139 484.248 234.307C484.095 231.986 483.841 229.677 483.484 227.379C481.537 214.912 476.659 203.084 469.253 192.868C465.543 190.614 462.613 187.276 460.859 183.306C460.222 181.878 459.796 180.366 459.593 178.816C460.02 178.893 460.455 178.948 460.883 178.996C461.016 179.01 461.157 179.023 461.29 179.037L461.34 179.041C461.811 179.084 462.285 178.99 462.704 178.771C463.122 178.551 463.469 178.215 463.701 177.803C463.933 177.391 464.042 176.921 464.013 176.449C463.984 175.977 463.82 175.523 463.539 175.143C463.364 174.906 463.189 174.669 463.014 174.432C462.749 174.067 462.476 173.709 462.211 173.344C462.18 173.309 462.151 173.272 462.125 173.234C461.819 172.818 461.514 172.408 461.209 171.992C461.843 171.102 462.673 170.371 463.636 169.855C466.97 168.105 471.386 169.63 473.594 172.674C475.808 175.719 476.06 179.858 475.073 183.488C474.124 186.571 472.658 189.471 470.737 192.062C470.902 192.296 471.075 192.522 471.241 192.756C474.265 197.042 476.862 201.615 478.995 206.408C478.668 201.134 479.597 195.858 481.707 191.014C483.826 186.506 487.577 182.801 490.907 178.974C494.907 174.377 502.557 176.82 502.94 182.902C502.944 182.961 502.948 183.02 502.951 183.078C502.472 183.32 502.001 183.579 501.54 183.854C500.961 184.203 500.5 184.719 500.219 185.335C499.938 185.95 499.849 186.636 499.965 187.303C500.08 187.97 500.395 188.586 500.866 189.071C501.338 189.557 501.945 189.888 502.609 190.022L502.677 190.036C502.432 191.712 502.06 193.366 501.564 194.986C500.136 199.505 497.79 203.68 494.672 207.25C491.555 210.819 487.734 213.707 483.448 215.73C483.167 215.858 482.893 215.987 482.612 216.108C484.662 222.91 485.819 229.95 486.054 237.051C486.179 241.24 485.965 245.432 485.414 249.586L485.442 249.439C486.559 244.843 489.228 240.774 492.998 237.918C498.594 233.741 506.285 232.465 512.266 229.176C512.903 228.808 513.631 228.63 514.366 228.662C515.1 228.695 515.81 228.936 516.412 229.359C517.013 229.782 517.481 230.368 517.761 231.048C518.041 231.728 518.12 232.473 517.989 233.197C517.979 233.248 517.969 233.3 517.958 233.351C517.075 233.664 516.212 234.031 515.375 234.451C514.895 234.693 514.425 234.952 513.964 235.227C513.384 235.576 512.924 236.092 512.643 236.708C512.361 237.323 512.273 238.009 512.388 238.676C512.504 239.343 512.818 239.959 513.29 240.444C513.762 240.93 514.369 241.261 515.032 241.395L515.1 241.409C515.149 241.418 515.191 241.427 515.24 241.436C513.594 244.904 511.364 248.062 508.646 250.773C505.293 254.052 501.305 256.611 496.927 258.294C492.55 259.976 487.875 260.747 483.189 260.558L483.182 260.558C481.653 266.025 479.56 271.318 476.936 276.352L457.296 275.438C457.236 275.217 457.183 274.988 457.13 274.767C458.942 274.966 460.773 274.942 462.579 274.696C461.205 272.84 459.832 270.97 458.458 269.115C458.427 269.08 458.398 269.043 458.372 269.005C457.675 268.055 456.971 267.112 456.275 266.163L456.274 266.162C456.365 263.355 456.818 260.571 457.62 257.88L457.62 257.879Z" fill="#F2F2F2"/>
<path d="M61.8894 88.0451C61.3877 88.1231 60.8742 88.045 60.4184 87.8214C59.9626 87.5978 59.5866 87.2395 59.3412 86.7951C59.0959 86.3506 58.993 85.8414 59.0467 85.3366C59.1004 84.8317 59.308 84.3556 59.6414 83.9727C59.6766 83.7193 59.7019 83.5372 59.7371 83.2838C59.709 83.2325 59.6809 83.1813 59.6526 83.1301C59.0141 81.9857 58.0518 81.0554 56.8863 80.4561C55.7209 79.8568 54.4044 79.6153 53.1021 79.7618C51.7998 79.9083 50.5699 80.4365 49.5668 81.2798C48.5637 82.1231 47.8322 83.244 47.4641 84.5017C45.9922 89.5218 43.9765 94.6094 43.9037 99.7559C43.8725 102.031 44.2362 104.294 44.9785 106.444C39.1831 96.736 35.5429 85.8952 34.3046 74.6568C33.9969 71.8363 33.847 69.0008 33.8558 66.1636C33.8651 63.8375 33.9766 61.5168 34.1902 59.2015C35.3639 46.6376 39.5011 34.5313 46.2621 23.8767C49.8257 21.3976 52.5437 17.8857 54.0498 13.8143C54.5966 12.3502 54.9286 10.8146 55.0355 9.25536C54.6142 9.35789 54.1837 9.44015 53.7594 9.51464C53.627 9.53608 53.4877 9.55836 53.3553 9.57986L53.3053 9.58758C52.838 9.65974 52.3597 9.59527 51.9281 9.40193C51.4965 9.20858 51.13 8.89462 50.8727 8.49781C50.6154 8.10101 50.4783 7.63829 50.4778 7.16536C50.4774 6.69244 50.6137 6.22948 50.8702 5.8322C51.0301 5.58505 51.19 5.338 51.3501 5.09105C51.5922 4.71026 51.8421 4.33572 52.0842 3.95499C52.1129 3.91819 52.1395 3.87977 52.1639 3.83994C52.4428 3.40554 52.7223 2.97818 53.0012 2.54378C52.3136 1.69473 51.4392 1.01598 50.4461 0.560442C47.0107 -0.979834 42.6975 0.814884 40.6823 3.99008C38.6601 7.16598 38.6645 11.3125 39.8742 14.8741C41.0112 17.893 42.6537 20.6964 44.7314 23.1642C44.5806 23.4074 44.4221 23.6444 44.2714 23.8877C41.5174 28.3529 39.2078 33.0773 37.3755 37.993C37.3764 32.7091 36.1228 27.5005 33.7179 22.7955C31.3241 18.4273 27.3509 14.9613 23.7908 11.3471C19.5146 7.0059 12.0308 9.9175 12.0234 16.011C12.0233 16.07 12.0234 16.129 12.0237 16.1879C12.5171 16.3996 13.0024 16.6285 13.4797 16.8746C14.0797 17.1875 14.5712 17.6743 14.8898 18.2713C15.2084 18.8683 15.3393 19.5476 15.2652 20.2202C15.1911 20.8928 14.9156 21.5274 14.4747 22.0408C14.0338 22.5541 13.4482 22.9223 12.7945 23.0972L12.7275 23.1151C13.0754 24.7726 13.5487 26.4013 14.1435 27.987C15.8481 32.4091 18.4479 36.4313 21.7799 39.8016C25.1119 43.1718 29.1042 45.8174 33.5065 47.5724C33.795 47.6828 34.0765 47.794 34.3642 47.8974C32.7383 54.8136 32.0187 61.9118 32.2234 69.0136C32.3576 73.202 32.8302 77.3727 33.6366 81.485L33.5996 81.3401C32.2008 76.822 29.2856 72.9251 25.3463 70.3075C19.5025 66.4843 11.7471 65.6859 5.57453 62.7733C4.91653 62.4453 4.17845 62.3123 3.44735 62.39C2.71625 62.4677 2.02263 62.7529 1.44829 63.2119C0.873943 63.6709 0.442836 64.2846 0.205814 64.9805C-0.0312072 65.6765 -0.0642606 66.4257 0.110556 67.1398C0.123919 67.1906 0.137422 67.2412 0.151054 67.2919C1.05198 67.5495 1.93599 67.8629 2.79795 68.2303C3.29137 68.4421 3.77673 68.671 4.25401 68.917C4.85402 69.2299 5.34553 69.7167 5.66413 70.3137C5.98273 70.9107 6.11356 71.59 6.03948 72.2627C5.96541 72.9353 5.68989 73.5698 5.24901 74.0832C4.80813 74.5966 4.22246 74.9648 3.56874 75.1396L3.50175 75.1575C3.45348 75.1698 3.41219 75.1815 3.364 75.1938C5.22089 78.5531 7.64216 81.5677 10.5218 84.1055C14.0714 87.1706 18.2097 89.4783 22.6829 90.8872C27.1561 92.2962 31.87 92.7766 36.5355 92.299L36.5425 92.2982C38.4063 97.6602 40.8222 102.814 43.7515 107.676L63.2978 105.55C63.3443 105.326 63.3829 105.095 63.4223 104.87C61.6255 105.181 59.7973 105.27 57.9787 105.137C59.2354 103.199 60.4905 101.248 61.7472 99.3108C61.7759 99.274 61.8025 99.2356 61.8268 99.1958C62.4634 98.2051 63.1077 97.2205 63.7442 96.2298L63.7445 96.2286C63.4801 93.4326 62.8568 90.6823 61.89 88.0455L61.8894 88.0451Z" fill="#F2F2F2"/>
<path d="M331.938 80.8015C332.905 81.0676 333.802 81.5427 334.566 82.1932C335.331 82.8437 335.943 83.6538 336.36 84.5665C336.777 85.4792 336.989 86.4721 336.98 87.4755C336.972 88.4789 336.744 89.4683 336.312 90.374L346.801 102.036L341.269 110.138L326.688 93.4618C325.214 92.6352 324.095 91.297 323.543 89.7005C322.99 88.1041 323.042 86.3603 323.689 84.7998C324.337 83.2393 325.534 81.9703 327.054 81.2334C328.574 80.4965 330.312 80.3428 331.938 80.8015Z" fill="#A0616A"/>
<path d="M430.134 109.437C429.189 107.898 427.949 106.56 426.485 105.502C425.022 104.443 423.364 103.683 421.606 103.267C419.848 102.85 418.026 102.785 416.243 103.074C414.46 103.364 412.751 104.002 411.216 104.953L376.72 126.318L339.509 94.6878L330.251 103.308L371.358 156.642L424.785 128.79C423.539 129.44 431.641 111.889 430.134 109.437Z" fill="#8FA89B"/>
<path d="M361.797 180.476C361.8 197.513 358.447 214.384 351.929 230.124C345.411 245.865 335.855 260.168 323.808 272.215C311.761 284.261 297.459 293.817 281.718 300.335C265.977 306.853 249.107 310.207 232.07 310.203C160.424 310.203 102.342 252.121 102.342 180.476C102.33 166.54 104.564 152.693 108.958 139.468C117.586 113.639 134.115 91.1762 156.207 75.2554C178.3 59.3347 204.838 50.7616 232.07 50.7487C255.555 50.7405 278.602 57.1101 298.75 69.1775C318.898 81.245 335.39 98.5572 346.467 119.266C349.214 124.376 351.61 129.666 353.638 135.1C353.919 135.857 354.193 136.614 354.46 137.378V137.385C355.649 140.743 356.697 144.164 357.602 147.648C360.396 158.366 361.806 169.399 361.797 180.476Z" fill="#033D20"/>
<path d="M217.876 92.9506C212.047 89.798 205.574 88.0183 198.951 87.7474C192.329 87.4765 185.733 88.7214 179.665 91.3873C174.322 93.7124 168.696 97.8834 166.914 105.416C174.122 101.161 183.454 107.883 185.308 118.666L184.875 118.785C183.896 126.254 186.083 134.385 190.317 139.016C190.873 134.205 194.036 130.932 197.147 128.887C200.258 126.841 203.699 125.356 206.074 121.841C208.889 117.673 209.604 111.583 210.722 106.027C211.84 100.471 213.962 94.4988 217.876 92.9506Z" fill="white"/>
<path d="M177.526 156.505C175.53 159.503 172.864 161.384 170.471 163.727C168.085 166.076 165.815 169.247 165.339 173.319C165.037 175.928 165.505 178.58 165.44 181.218C165.375 183.856 164.496 186.825 162.702 187.481C159.869 188.505 157.707 183.243 154.795 182.876C152.482 182.588 150.399 186.227 151.069 189.384C151.74 192.541 154.889 193.939 156.698 191.877C158.334 194.623 157.181 199.604 154.723 200.447C154.464 202.176 154.205 203.899 153.952 205.629C147.74 201.283 141.462 196.865 136.18 190.501C130.304 183.483 126.66 174.87 125.715 165.766C125.03 158.451 126.046 150.084 122.688 144.455C120 139.951 115.387 138.956 111.236 139.237C110.479 139.288 109.715 139.374 108.958 139.468C111.407 132.115 114.516 124.999 118.248 118.207C119.093 117.844 119.878 117.356 120.576 116.758C124.439 113.479 126.155 106.841 129.29 102.25C129.491 101.955 129.7 101.667 129.917 101.386C133.124 97.1982 137.419 95.0433 141.57 93.0397C150.759 88.5786 160.215 84.0597 169.916 84.6795L167.156 84.9462C163.934 93.9694 160.71 102.993 157.484 112.016C156.994 113.4 156.499 114.786 155.999 116.174C154.168 121.306 152.28 126.769 152.561 132.513C152.727 135.915 153.909 139.547 156.158 140.714C158.255 141.796 160.547 140.469 162.572 139.158C163.429 138.61 164.28 138.062 165.138 137.507C168.215 135.525 171.624 133.493 174.874 134.819C177.851 136.03 180.049 140.073 180.467 144.433C180.85 148.672 179.816 152.918 177.526 156.505Z" fill="white"/>
<path d="M195.829 218.109C186.842 212.575 177.854 207.041 168.866 201.507L169.018 201.114C163.43 203.243 161.11 213.176 162.033 221.3C162.957 229.423 166.089 236.685 167.67 244.6C169.804 255.432 168.999 266.638 165.339 277.053C177.157 263.792 187.617 249.379 196.56 234.032C197.809 232.097 198.761 229.986 199.384 227.769C199.955 225.411 199.867 222.575 198.724 220.684C197.988 219.599 196.993 218.714 195.829 218.109Z" fill="white"/>
<path d="M160.357 117.43C159.403 119.576 159.036 122.437 159.902 124.657C160.786 126.925 162.656 127.95 164.378 128.803L169.344 131.265C170.996 132.083 172.777 132.911 174.461 132.237C176.493 131.424 177.901 128.239 177.537 125.283C177.149 122.137 175.166 119.972 173.332 118.129C170.765 115.55 168.198 112.971 165.632 110.392L164.185 112.164C162.62 113.69 161.326 115.471 160.357 117.43Z" fill="white"/>
<path d="M335.174 151.064C337.408 151.59 339.642 152.116 341.877 152.642C341.487 160.188 337.747 167.172 332.731 169.701C330.641 170.754 328.313 171.143 326.583 173.11C325.019 174.898 324.226 177.679 323.498 180.339C322.223 184.98 320.947 189.622 319.671 194.263C318.302 199.265 316.544 204.821 312.983 206.623C309.928 208.173 306.432 206.277 304.083 203.099C301.733 199.921 300.299 195.647 298.908 191.481C298.994 196.021 296.883 200.476 293.892 202.054C290.894 203.632 287.247 202.205 285.243 198.681C283.802 196.151 283.204 192.814 281.791 190.249C280.379 187.683 277.417 186.213 275.874 188.62C274.858 190.22 274.988 192.67 274.483 194.703C273.698 197.859 271.319 199.841 268.963 200.014C266.613 200.187 264.321 198.832 262.354 196.994C258.296 193.189 255.305 187.15 254.145 180.44C253.633 177.449 253.489 174.191 254.376 171.388C255.262 168.584 257.403 166.422 259.529 166.955C260.927 164 258.166 160.08 255.68 160.426C253.186 160.772 251.233 163.446 249.186 165.5C247.147 167.554 244.293 169.045 242.239 167.006C242.253 168.901 240.711 170.155 239.378 169.997C238.051 169.845 236.87 168.779 235.652 168.022C230.945 165.089 224.971 167.035 221.627 172.584C223.717 163.691 226.78 153.485 233.201 151.395C235.825 150.538 238.686 151.244 241.165 149.759C245.554 147.129 246.441 137.19 242.65 133.089C243.132 136.967 243.039 141.493 240.992 144.145C238.945 146.797 234.65 145.067 234.909 141.147C234.318 143.849 231.378 144.26 230.023 142.185C228.661 140.109 228.776 136.715 229.742 134.235C230.707 131.756 232.351 129.976 233.943 128.268C237.367 124.599 240.841 120.888 244.805 118.581C248.776 116.275 253.359 115.497 257.338 117.789C259.435 119 261.28 121.018 263.42 122.084C265.561 123.158 268.278 123.021 269.698 120.513C271.291 117.717 270.541 113.565 271.132 110.07C272.191 103.894 278.368 101.003 281.791 105.083C279.233 104.427 276.588 107.454 276.271 111.122C275.946 114.791 277.799 118.495 280.278 119.605C284.443 121.45 288.523 116.809 291.672 112.513C294.959 108.016 298.25 103.521 301.546 99.0287C302.072 98.2639 302.663 97.5453 303.311 96.8811C304.344 95.8748 305.72 95.2987 307.161 95.2692C308.602 95.2398 310.001 95.7593 311.074 96.7225C314.403 99.4395 315.967 105.011 318.699 108.845C322.663 114.416 328.594 115.771 334.115 116.852C338.23 117.652 342.347 118.457 346.468 119.266C349.214 124.376 351.61 129.666 353.639 135.1C346.662 138.062 340.226 143.605 335.174 151.064Z" fill="white"/>
<path d="M348.478 237.779C345.39 244.049 341.799 250.058 337.74 255.747C335.145 254.637 332.356 256.619 329.927 258.478C327.39 260.424 324.342 262.319 321.74 260.547C319.081 258.73 318.223 253.649 319.066 249.621C319.909 245.599 322.014 242.399 324.053 239.358C326.216 236.129 328.529 232.778 331.534 231.524C334.547 230.27 338.417 232.043 339.296 236.324L341.43 236.251C340.233 234.608 340.86 231.206 342.468 230.608C344.32 229.909 345.927 232.453 347.022 234.702C347.512 235.718 348.01 236.742 348.478 237.779Z" fill="white"/>
<path d="M266.775 207.337C262.189 207.626 258.557 201.981 256.144 196.428C253.73 190.874 251.528 184.524 247.39 181.697C245.026 180.082 242.331 179.86 239.767 179.078C237.203 178.295 234.519 176.676 233.293 173.378L230.384 172.203C226.543 174.363 222.651 176.562 219.341 180.077C215.628 184.021 213.316 189.076 212.76 194.463C212.205 200.285 214.256 206.777 218.09 208.964C221.119 210.693 224.646 209.603 227.715 211.185C231.549 213.162 233.825 218.904 234.686 224.573C235.548 230.243 235.33 236.135 235.946 241.869C236.563 247.602 238.261 253.568 241.777 256.507C246.177 260.184 252.633 257.128 254.607 250.435C255.575 247.152 255.542 243.447 256.266 240.039C257.541 234.037 260.983 229.584 263.712 224.661C266.442 219.738 268.59 213.051 266.775 207.337Z" fill="white"/>
<path d="M221.464 148.361C221.892 148.755 222.291 149.178 222.658 149.628C223.039 150.284 223.233 151.031 223.22 151.789C223.207 152.547 222.988 153.287 222.585 153.929C223.137 153.898 223.677 153.752 224.17 153.501C224.664 153.251 225.099 152.9 225.45 152.473C226.287 151.52 227.024 150.483 227.647 149.378C228.115 148.616 228.612 147.585 228.295 146.679C228.078 146.061 227.566 145.797 227.207 145.332C226.638 144.595 226.497 143.425 226.202 142.413C225.566 140.229 224.042 138.622 222.387 138.393L222.617 138.437C221.926 138.673 221.443 139.771 221.596 140.758C221.735 141.658 222.313 142.404 222.256 143.322C222.173 144.641 220.855 145.26 220.773 146.579C220.761 147.241 221.009 147.881 221.464 148.361Z" fill="white"/>
<path d="M213.608 125.947C213.615 125.945 213.622 125.944 213.629 125.943C213.77 125.814 213.9 125.675 214.02 125.526L213.608 125.947Z" fill="#E6E6E6"/>
<path d="M214.983 132.138C215.997 131.486 216.563 129.683 216.228 128.174C215.895 126.674 214.716 125.666 213.629 125.943C213.313 126.262 212.922 126.497 212.491 126.624C212.06 126.75 211.604 126.766 211.165 126.668C210.493 126.495 209.755 126.049 209.172 126.556C208.838 126.934 208.605 127.39 208.493 127.881C208.277 128.544 208.061 129.206 207.845 129.869C207.743 130.106 207.716 130.369 207.769 130.622C207.81 130.723 207.877 130.812 207.962 130.881C208.048 130.949 208.15 130.994 208.258 131.011C209.553 131.393 210.848 131.775 212.143 132.156C213.086 132.434 214.105 132.703 214.983 132.138Z" fill="white"/>
<path d="M312.741 217.613C312.143 216.633 311.544 215.653 310.946 214.673C310.358 213.538 309.554 212.529 308.579 211.702C308.365 211.522 308.117 211.387 307.85 211.305C307.583 211.223 307.302 211.195 307.024 211.223C306.745 211.25 306.476 211.334 306.23 211.467C305.985 211.601 305.768 211.782 305.594 212.001L305.667 212.56C307.031 214.272 308.475 216.174 308.821 218.714C308.957 219.716 308.91 220.752 309.03 221.758C309.149 222.764 309.489 223.807 310.139 224.241C311.081 224.871 312.188 223.942 312.859 222.809C313.458 221.879 313.727 220.774 313.623 219.672C313.473 218.932 313.173 218.231 312.741 217.613Z" fill="white"/>
<path d="M339.381 180.185C339.554 179.05 339.728 177.915 339.901 176.779C340.182 175.533 340.217 174.243 340.004 172.982C339.955 172.707 339.852 172.444 339.701 172.209C339.55 171.974 339.353 171.772 339.122 171.614C338.891 171.457 338.631 171.346 338.358 171.291C338.084 171.235 337.802 171.234 337.527 171.289L337.223 171.764C337.164 173.952 337.044 176.337 335.673 178.503C335.132 179.357 334.428 180.12 333.872 180.966C333.316 181.813 332.904 182.83 333.122 183.58C333.437 184.669 334.882 184.671 336.125 184.237C337.183 183.911 338.1 183.238 338.73 182.328C339.092 181.666 339.313 180.936 339.381 180.185Z" fill="#E6E6E6"/>
<path d="M322.131 218.888C322.424 218.047 322.001 217.082 321.912 216.152C321.869 214.951 322.188 213.765 322.826 212.747C323.46 211.787 323.941 210.733 324.25 209.625C324.381 209.12 324.357 208.587 324.182 208.096C323.984 207.65 323.504 207.447 323.229 207.8L323.818 208.179C323.022 208.037 322.205 208.077 321.427 208.295C320.983 208.465 320.587 208.739 320.272 209.095C319.956 209.45 319.731 209.877 319.615 210.338C319.518 211.056 319.359 211.765 319.14 212.457C318.789 213.179 318.109 213.419 317.681 214.053C317.39 214.615 317.242 215.241 317.253 215.874C317.263 216.507 317.431 217.127 317.741 217.68C318.278 218.583 319.131 219.254 320.136 219.562C320.855 219.82 321.802 219.834 322.131 218.888Z" fill="white"/>
<path d="M338.853 223.934C339.113 224.61 339.462 225.25 339.889 225.835C340.69 226.642 341.778 226.146 342.749 225.95C343.631 225.811 344.533 225.913 345.361 226.245C346.189 226.577 346.912 227.127 347.453 227.837C347.076 225.958 346.254 224.198 345.056 222.703C343.858 221.208 342.319 220.022 340.567 219.246C338.278 218.313 335.866 218.222 333.485 218.138L333.074 218.244C334.122 221.294 337.413 221.226 338.853 223.934Z" fill="white"/>
<path d="M268.029 230.173L268.035 230.186C268.075 230.11 268.115 230.033 268.155 229.956L268.029 230.173Z" fill="#E6E6E6"/>
<path d="M265.492 235.083C264.939 236.088 264.463 237.133 264.069 238.21C263.547 239.954 263.202 241.746 263.038 243.559C262.909 244.59 262.869 245.907 263.515 246.409C263.7 246.532 263.924 246.584 264.145 246.554C264.366 246.524 264.568 246.414 264.714 246.246C265.072 245.867 265.366 245.43 265.582 244.955C266.852 242.768 267.838 240.429 268.516 237.993C269.134 235.428 269.128 232.407 268.035 230.186C267.188 231.819 266.34 233.451 265.492 235.083Z" fill="white"/>
<path d="M241.02 104.263C241.423 104.657 241.932 104.925 242.485 105.033C243.038 105.141 243.611 105.084 244.132 104.871C245.212 104.399 246.203 103.744 247.061 102.936C247.771 102.411 248.374 101.753 248.836 101C249.091 100.549 249.254 100.053 249.316 99.5399C249.379 99.0264 249.339 98.5056 249.199 98.0075C248.798 96.8345 247.781 96.4413 246.883 96.1751C245.445 95.7488 244.008 95.3226 242.571 94.8964L243.61 93.9593C242.541 93.3852 241.357 94.4507 240.689 95.7698C240.26 96.6312 239.961 97.5513 239.802 98.5002C239.444 100.571 239.794 103.036 241.02 104.263Z" fill="#E6E6E6"/>
<path d="M266.395 95.7446C266.8 96.1912 267.36 96.467 267.961 96.5159C268.562 96.5647 269.16 96.3831 269.632 96.0079C270.038 95.7028 270.375 95.3155 270.622 94.8713C270.868 94.4271 271.019 93.936 271.063 93.4299C271.165 92.2993 270.606 91.0427 269.807 90.9451L269.99 89.8865C268.452 89.6088 266.559 89.5531 265.735 91.4208C265.457 92.1363 265.372 92.9122 265.488 93.6709C265.604 94.4297 265.916 95.1448 266.395 95.7446Z" fill="#E6E6E6"/>
<path d="M263.006 39.4538C253.989 38.4367 244.938 41.0432 237.843 46.6996C230.748 52.3561 226.191 60.5994 225.174 69.616C223.056 88.392 232.948 129.165 250.982 146.043C259.474 113.706 289.23 94.525 293.168 77.2857C297.375 58.865 281.782 41.5718 263.006 39.4538Z" fill="#D3AD7F"/>
<path d="M256.77 81.1948C262.932 81.1948 267.927 76.1993 267.927 70.037C267.927 63.8746 262.932 58.8791 256.77 58.8791C250.607 58.8791 245.612 63.8746 245.612 70.037C245.612 76.1993 250.607 81.1948 256.77 81.1948Z" fill="white"/>
<path d="M245.038 162.131C249.074 162.131 252.346 158.859 252.346 154.823C252.346 150.787 249.074 147.515 245.038 147.515C241.001 147.515 237.729 150.787 237.729 154.823C237.729 158.859 241.001 162.131 245.038 162.131Z" fill="#D3AD7F"/>
<path opacity="0.2" d="M266.002 62.0431C267.258 62.7977 268.353 63.7924 269.224 64.9703C270.096 66.1482 270.727 67.4862 271.081 68.9079C271.436 70.3296 271.506 71.8072 271.29 73.2564C271.073 74.7055 270.573 76.0978 269.819 77.3538C269.064 78.6097 268.069 79.7047 266.891 80.5762C265.714 81.4478 264.376 82.0788 262.954 82.4332C260.083 83.149 257.044 82.6949 254.508 81.1707C257.094 81.746 259.801 81.3822 262.143 80.1443C264.485 78.9064 266.311 76.8753 267.293 74.4145C268.274 71.9537 268.348 69.2238 267.501 66.7135C266.654 64.2032 264.941 62.0763 262.669 60.7136C263.844 60.974 264.97 61.423 266.002 62.0431Z" fill="#231F20"/>
<path opacity="0.2" d="M293.211 77.3217C289.274 94.561 259.518 113.742 251.026 146.079C249.33 144.476 247.755 142.75 246.313 140.916C255.855 110.519 283.76 92.0497 287.564 75.3935C290.969 60.4858 281.405 46.3181 267.681 40.3333C284.293 44.5093 297.067 60.4408 293.211 77.3217Z" fill="#231F20"/>
<path d="M158.445 82.9901C151.674 82.2263 144.877 84.1836 139.549 88.4315C134.221 92.6793 130.798 98.8697 130.035 105.641C128.444 119.741 135.873 150.36 149.416 163.035C155.793 138.751 178.139 124.347 181.096 111.401C184.255 97.5672 172.545 84.5806 158.445 82.9901Z" fill="#D3AD7F"/>
<path d="M153.762 114.336C158.39 114.336 162.141 110.585 162.141 105.957C162.141 101.329 158.39 97.5778 153.762 97.5778C149.134 97.5778 145.383 101.329 145.383 105.957C145.383 110.585 149.134 114.336 153.762 114.336Z" fill="white"/>
<path d="M144.952 175.116C147.983 175.116 150.44 172.659 150.44 169.628C150.44 166.597 147.983 164.14 144.952 164.14C141.921 164.14 139.464 166.597 139.464 169.628C139.464 172.659 141.921 175.116 144.952 175.116Z" fill="#D3AD7F"/>
<path opacity="0.2" d="M160.695 99.9538C161.638 100.521 162.46 101.268 163.115 102.152C163.769 103.037 164.243 104.041 164.509 105.109C164.776 106.177 164.829 107.286 164.666 108.375C164.504 109.463 164.128 110.508 163.561 111.452C162.995 112.395 162.248 113.217 161.363 113.872C160.479 114.526 159.474 115 158.406 115.266C157.338 115.532 156.229 115.586 155.141 115.423C154.052 115.26 153.007 114.885 152.064 114.318C154.006 114.75 156.038 114.477 157.797 113.547C159.556 112.618 160.927 111.092 161.664 109.244C162.402 107.396 162.457 105.346 161.821 103.461C161.185 101.576 159.898 99.9788 158.192 98.9554C159.075 99.151 159.92 99.4882 160.695 99.9538Z" fill="#231F20"/>
<path opacity="0.2" d="M181.129 111.428C178.172 124.374 155.826 138.778 149.449 163.062C148.175 161.858 146.992 160.562 145.91 159.184C153.075 136.358 174.031 122.488 176.887 109.98C179.444 98.7845 172.262 88.145 161.956 83.6506C174.431 86.7866 184.024 98.7507 181.129 111.428Z" fill="#231F20"/>
<path d="M420.779 386.53H411.579L407.202 351.044L420.781 351.044L420.779 386.53Z" fill="#A0616A"/>
<path d="M425.728 403.998H419.2L418.035 397.835L415.05 403.998H397.736C396.906 403.998 396.098 403.733 395.429 403.241C394.761 402.75 394.267 402.057 394.02 401.265C393.773 400.472 393.786 399.622 394.057 398.837C394.327 398.053 394.842 397.375 395.524 396.904L409.351 387.354V381.123L423.894 381.991L425.728 403.998Z" fill="#2F2E41"/>
<path d="M385.145 386.53H375.945L371.568 351.044L385.147 351.044L385.145 386.53Z" fill="#A0616A"/>
<path d="M390.094 403.998H383.566L382.401 397.835L379.416 403.998H362.102C361.272 403.998 360.464 403.733 359.795 403.241C359.127 402.75 358.633 402.057 358.386 401.265C358.139 400.472 358.152 399.622 358.422 398.837C358.693 398.053 359.207 397.375 359.89 396.904L373.717 387.354V381.123L388.26 381.991L390.094 403.998Z" fill="#2F2E41"/>
<path d="M350.193 292.839C351.954 295.48 371.107 368.077 371.107 368.077L388.09 370.014L386.074 351.748L382.993 319.424L378.222 297.848C378.222 297.848 395.07 259.502 396.135 256.448L396.892 254.256L402.157 302.029C402.782 303.735 403.055 305.549 402.958 307.364C402.799 310.348 405.792 355.242 405.792 355.242L407.231 371.343L421.782 373.364L427.685 345.506C432.615 336.457 429.789 304.3 427.773 301.307C425.757 298.314 426.558 277.469 426.558 277.469C429.132 276.563 444.483 224.219 436.805 224.528C437.298 221.738 437.685 219.246 437.685 219.246L424.357 208.498L391.003 199.827L382.588 195.787C382.588 195.787 367.559 223.578 367.709 224.96C367.916 226.71 367.515 228.478 366.573 229.968L351.399 280.752C351.399 280.752 348.415 290.172 350.193 292.839Z" fill="#2F2E41"/>
<path d="M433.99 111.115L428.684 99.8489L410.624 100.543L404.733 112.263C404.733 112.263 387.898 132.371 387.353 138.909C386.668 147.133 392.364 187.435 386.668 184.823C386.668 184.823 373.24 200.584 381.186 200.584C389.131 200.584 425.072 223.146 427.43 225.683C429.789 228.22 440.316 229.865 439.434 224.568C438.551 219.271 433.99 190.624 433.99 190.624L446.337 145.579C449.891 135.854 450.997 124.945 442.964 118.413L433.99 111.115Z" fill="#8FA89B"/>
<path d="M367.094 77.9563C364.679 76.9974 362.098 76.5237 359.499 76.5623C356.9 76.6008 354.335 77.1508 351.948 78.1809C349.562 79.2109 347.402 80.7009 345.592 82.5657C343.782 84.4305 342.357 86.6336 341.398 89.0493C337.365 99.2084 336.697 123.469 344.201 135.628C353.85 118.867 373.372 112.678 378.187 103.653C383.332 94.0092 377.253 81.989 367.094 77.9563Z" fill="#D3AD7F"/>
<path d="M358.97 100.535C362.535 100.535 365.425 97.6457 365.425 94.081C365.425 90.5163 362.535 87.6265 358.97 87.6265C355.406 87.6265 352.516 90.5163 352.516 94.081C352.516 97.6457 355.406 100.535 358.97 100.535Z" fill="white"/>
<path d="M339.55 143.854C341.885 143.854 343.778 141.962 343.778 139.627C343.778 137.292 341.885 135.399 339.55 135.399C337.215 135.399 335.322 137.292 335.322 139.627C335.322 141.962 337.215 143.854 339.55 143.854Z" fill="#D3AD7F"/>
<path opacity="0.2" d="M365.337 91.0202C366.52 92.2564 367.163 93.9115 367.126 95.6218C367.089 97.3321 366.374 98.9576 365.139 100.141C363.904 101.325 362.249 101.97 360.539 101.935C358.829 101.899 357.203 101.186 356.018 99.9523C357.374 100.666 358.94 100.874 360.435 100.538C361.931 100.203 363.258 99.3464 364.18 98.1218C365.101 96.8972 365.557 95.3847 365.465 93.8549C365.373 92.325 364.74 90.8778 363.679 89.7722C364.295 90.096 364.855 90.5174 365.337 91.0202Z" fill="#231F20"/>
<path opacity="0.2" d="M378.206 103.68C373.391 112.705 353.869 118.894 344.22 135.655C343.517 134.503 342.899 133.301 342.373 132.057C352.314 116.539 370.694 110.466 375.346 101.746C379.51 93.9414 376.322 84.5811 369.57 79.157C378.209 84.01 382.921 94.8421 378.206 103.68Z" fill="#231F20"/>
<path d="M337.645 138.171C338.627 137.968 339.643 137.984 340.619 138.216C341.595 138.448 342.508 138.892 343.295 139.515C344.081 140.139 344.721 140.927 345.17 141.824C345.618 142.722 345.865 143.707 345.892 144.71L360.535 150.331L359.289 160.062L338.722 151.834C337.034 151.768 335.429 151.084 334.211 149.913C332.993 148.742 332.247 147.165 332.114 145.481C331.982 143.797 332.471 142.123 333.491 140.775C334.51 139.428 335.988 138.501 337.645 138.171L337.645 138.171Z" fill="#A0616A"/>
<path d="M439.96 118.117C438.418 117.175 436.706 116.548 434.921 116.27C433.136 115.992 431.314 116.069 429.559 116.497C427.804 116.925 426.151 117.695 424.694 118.763C423.237 119.831 422.006 121.176 421.07 122.721L400.052 157.43L352.531 146.165L348.201 158.051L409.057 186.877L439.879 137.786C444.493 131.302 446.753 122.264 439.96 118.117Z" fill="#8FA89B"/>
<path d="M440.745 75.5805C440.746 78.9258 439.926 82.2202 438.357 85.1746C436.787 88.1289 434.517 90.6529 431.745 92.525C428.972 94.3971 425.783 95.56 422.456 95.9116C419.129 96.2632 415.767 95.7929 412.665 94.5418C409.562 93.2907 406.814 91.2971 404.662 88.7361C402.51 86.175 401.019 83.1248 400.321 79.8532C399.623 76.5816 399.739 73.1887 400.658 69.9722C401.577 66.7557 403.272 63.8141 405.593 61.4055L405.691 61.3075C405.855 61.1358 406.018 60.9641 406.19 60.8006C406.191 60.8006 406.192 60.8004 406.193 60.8C406.194 60.7996 406.195 60.799 406.196 60.7982C406.197 60.7975 406.197 60.7966 406.198 60.7956C406.198 60.7946 406.198 60.7935 406.198 60.7924C406.411 60.5962 406.623 60.4 406.844 60.212C409.797 57.623 413.434 55.9399 417.319 55.3644C421.204 54.7888 425.172 55.3451 428.749 56.9667C432.326 58.5882 435.36 61.2063 437.487 64.5076C439.615 67.8088 440.746 71.6532 440.745 75.5805V75.5805Z" fill="#2F2E41"/>
<path d="M415.273 97.446C424.737 97.446 432.41 89.7735 432.41 80.309C432.41 70.8444 424.737 63.1719 415.273 63.1719C405.808 63.1719 398.136 70.8444 398.136 80.309C398.136 89.7735 405.808 97.446 415.273 97.446Z" fill="#9E616A"/>
<path d="M433.471 85.1963L430.631 84.6947C429.045 84.4064 427.584 83.6404 426.445 82.4994C425.305 81.3584 424.541 79.8967 424.255 78.3098L421.485 82.9531L421.364 82.9933C414.763 85.1849 407.894 84.5294 400.371 80.992C398.22 79.9717 396.134 78.8212 394.123 77.5469L393.974 77.4542L393.962 77.2799C393.579 71.705 394.829 67.0476 397.486 64.1657C398.505 63.0814 399.743 62.2248 401.117 61.6521C402.49 61.0794 403.97 60.8035 405.458 60.8424C405.564 60.8148 405.661 60.761 405.741 60.6862C405.779 60.6581 405.817 60.6303 405.855 60.6038V60.5751L406.052 60.4824C406.475 60.2836 406.906 60.0932 407.337 59.9192C410.728 58.6066 414.42 58.2773 417.99 58.9692C421.56 59.6611 424.862 61.3462 427.517 63.8308C432.796 68.8702 435.217 77.3274 433.542 84.8761L433.471 85.1963Z" fill="#2F2E41"/>
<path d="M469.617 99.797C463.785 96.787 471.285 85.8625 469.778 79.4752C468.271 73.0879 457.418 71.0335 456.726 64.5074C456.035 57.9812 454.408 51.2501 450.102 46.298C447.35 43.1336 443.295 40.7975 439.121 41.1939C437.708 41.328 436.341 41.765 435.113 42.475C433.884 43.1851 432.823 44.1515 432.002 45.3086C431.181 46.4657 430.619 47.7861 430.354 49.1801C430.089 50.574 430.127 52.0086 430.467 53.3863C429.278 51.7021 426.202 52.0671 425.441 53.9828C424.764 55.6859 426.259 57.7489 428.019 57.8995C430.322 60.7434 432.959 63.7615 436.567 64.3352C437.141 64.4672 437.739 64.4669 438.313 64.3342C438.888 64.2016 439.425 63.9401 439.884 63.5695C440.733 62.7545 440.799 61.1249 439.792 60.5158C444.326 62.3168 446.984 67.2188 447.657 72.0507C448.329 76.8825 447.399 81.7714 446.785 86.6112C446.172 91.4509 445.908 96.5421 447.805 101.036C450.047 106.346 455.209 110.152 460.843 111.373C466.476 112.593 472.476 111.4 477.575 108.713C482.674 106.025 486.926 101.922 490.4 97.3225C484.416 101.571 476.138 103.163 469.617 99.797Z" fill="#2F2E41"/>
<path d="M432.742 84.7199C432.742 84.7199 427.665 65.771 405.904 61.3974C405.88 61.3894 405.798 61.3566 405.691 61.3077C405.626 61.2667 405.544 61.2258 405.463 61.185C405.708 61.046 405.945 60.9235 406.19 60.8007C406.191 60.8007 406.192 60.8005 406.193 60.8001C406.194 60.7997 406.195 60.7991 406.196 60.7984C406.197 60.7976 406.197 60.7967 406.198 60.7957C406.198 60.7947 406.198 60.7936 406.198 60.7925C406.411 60.5963 406.623 60.4002 406.844 60.2122L407.465 60.2367C407.465 60.2367 429.3 56.7788 432.742 84.7199Z" fill="#D3AD7F"/>
<path opacity="0.2" d="M421.376 145.522L409.085 159.761L388.777 153.764L410.916 163.967L421.376 145.522Z" fill="black"/>
<path d="M495.146 405.072L306.183 405.282C305.967 405.281 305.76 405.195 305.607 405.042C305.455 404.889 305.369 404.682 305.369 404.466C305.369 404.25 305.455 404.043 305.607 403.89C305.76 403.737 305.967 403.651 306.183 403.65L495.146 403.44C495.363 403.44 495.57 403.526 495.723 403.679C495.876 403.832 495.962 404.039 495.962 404.256C495.962 404.472 495.876 404.679 495.723 404.833C495.57 404.986 495.363 405.072 495.146 405.072Z" fill="#CACACA"/>
<path d="M503.441 278.269C494.592 278.269 484.894 277.935 474.346 277.266C419.789 273.802 349.122 261.757 275.36 243.351C201.599 224.945 133.557 202.376 83.7685 179.802C59.515 168.806 40.9006 158.397 28.4429 148.864C15.2534 138.772 9.48418 129.975 11.2947 122.719C14.8225 108.583 46.0592 105.49 71.6424 105.385L71.6511 107.441C36.5186 107.585 15.7922 113.188 13.2897 123.217C10.1019 135.991 36.1 155.932 84.6174 177.93C134.297 200.454 202.214 222.979 275.858 241.356C349.502 259.733 420.04 271.757 474.477 275.214C527.639 278.591 559.96 273.201 563.147 260.427C565.794 249.822 548.347 234.198 514.021 216.434L514.965 214.609C539.907 227.516 568.859 246.029 565.142 260.925C563.331 268.182 554.106 273.236 537.721 275.948C528.381 277.494 516.909 278.269 503.441 278.269Z" fill="#D3AD7F"/>
</svg>
