<svg width="144" height="144" viewBox="0 0 144 144" fill="none" xmlns="http://www.w3.org/2000/svg">
<circle cx="72" cy="72" r="72" fill="#FFDDB6"/>
<path d="M68.678 1.1748C48.1329 2.2409 29.4489 11.6732 16.7459 27.43C8.18094 38.0368 2.94075 50.8301 1.44097 64.7256C1.04344 68.3757 1.04344 74.8988 1.44097 78.4947C2.99496 92.9143 8.28936 105.509 17.5591 116.856C21.7874 122.024 28.7261 128.005 34.7975 131.692C44.1395 137.366 54.3669 140.745 65.4255 141.847C68.5877 142.154 75.2012 142.118 78.4718 141.756C97.9689 139.642 115.189 130.156 127.061 114.977C135.355 104.37 140.396 91.6132 141.788 77.7719C142.095 74.6459 142.059 68.0143 141.697 64.7256C139.529 44.6503 129.591 27.0866 113.599 15.1065C103.607 7.64372 91.1747 2.81913 78.544 1.51812C75.9239 1.24707 70.756 1.06638 68.678 1.1748ZM70.5753 9.86628C70.5753 9.95663 70.3404 11.2215 70.0513 12.7032C69.7622 14.1849 69.5634 15.504 69.6176 15.6486C69.7803 16.0461 70.5392 15.9196 70.8464 15.4498C71.009 15.2149 71.3343 14.0042 71.5692 12.7755C71.8221 11.5648 72.057 10.3722 72.1113 10.1373C72.2016 9.77593 72.31 9.7398 73.3038 9.7398C74.2615 9.7398 74.388 9.77593 74.2977 10.047C73.9905 11.1492 73.2496 15.3594 73.34 15.5944C73.5749 16.1726 74.912 15.7028 74.912 15.0523C74.912 14.9258 75.0205 14.7451 75.165 14.6728C75.2915 14.6005 75.7071 13.95 76.0504 13.2453C76.8816 11.601 77.5141 10.842 78.4356 10.4445C79.9715 9.75787 81.1822 10.7336 81.0196 12.4864C80.9834 12.8658 81.0015 13.173 81.0738 13.173C81.2364 13.173 82.5013 11.7636 82.5013 11.5648C82.5013 11.4745 82.3387 11.3661 82.1218 11.3119C81.8327 11.2396 81.7604 11.095 81.8146 10.6071C81.8688 10.047 81.905 10.0108 82.5736 10.0108C83.206 10.0108 83.2963 10.065 83.4409 10.5529C83.6577 11.4022 83.3144 12.1431 82.1399 13.2634C81.0557 14.2753 81.0557 14.2933 81.0557 15.3233C81.0557 15.8835 81.1461 16.4436 81.2725 16.5701C81.652 16.9496 82.2664 16.805 82.8085 16.2449C83.2963 15.7389 83.7662 15.5401 83.7662 15.8473C83.7662 15.9196 83.5132 16.3171 83.2241 16.7327C82.5916 17.6001 81.7243 18.0518 80.7305 18.0518C79.8631 18.0518 79.321 17.5097 79.1403 16.4436C78.9416 15.251 78.9416 15.251 77.7309 16.3894C76.7551 17.2929 76.5022 17.4555 76.0685 17.3652L75.5806 17.2748L76.195 16.7147C76.5383 16.4075 77.3334 15.7028 77.9477 15.1607L79.0681 14.1669L78.9235 12.8116C78.8151 11.619 78.7428 11.4564 78.4175 11.4022C77.9297 11.3299 77.0804 12.3238 76.5022 13.6609C76.2673 14.1849 75.9962 14.6186 75.9059 14.6186C75.7975 14.6186 75.5445 15.0161 75.3096 15.5221C74.7856 16.6785 73.864 17.329 72.7979 17.329C71.9667 17.329 71.2981 16.8773 71.2981 16.281C71.2981 16.0461 71.2078 16.0822 70.8825 16.4617C69.9068 17.6724 68.0817 17.7266 67.5938 16.552C67.377 16.0461 67.3589 16.028 67.2505 16.3894C66.853 17.6362 64.7569 18.1602 63.8715 17.2206C63.492 16.805 63.4378 16.6063 63.474 15.504L63.5101 14.2572L62.7512 14.3656C62.3356 14.4379 61.9561 14.5102 61.92 14.5463C61.8838 14.5825 61.7754 15.3956 61.7032 16.3533C61.6309 17.2929 61.5405 18.106 61.5044 18.1422C61.4682 18.1783 60.9623 18.2687 60.4021 18.3409C59.4264 18.4494 59.3722 18.4494 59.4987 18.1241C59.5709 17.8892 59.3541 18.0157 58.8662 18.4494C57.1315 20.0033 55.6137 18.9372 55.5776 16.1545C55.5595 14.9619 55.2884 15.7931 55.0355 17.7808C54.909 18.7746 54.7463 19.7142 54.6741 19.8588C54.5114 20.184 52.8671 20.6719 52.6864 20.4551C52.6141 20.3828 52.2527 19.5155 51.8733 18.5397C51.5119 17.582 51.1866 16.7869 51.1686 16.7869C51.1505 16.7869 51.1686 17.5639 51.2047 18.5036C51.2589 19.5877 51.2047 20.4189 51.0782 20.7442C50.6988 21.6115 49.3797 21.9549 48.5665 21.3766C48.1871 21.1056 48.1509 21.1237 47.8257 21.8826C47.4824 22.7138 46.4524 23.7438 45.6935 24.0329C44.3202 24.5569 43.1818 23.9244 42.5674 22.262C41.5375 19.5155 42.0615 17.2206 43.9226 16.2268C45.1875 15.5582 46.091 16.1003 46.3078 17.6543C46.4343 18.6481 46.0729 19.6058 45.2417 20.5093L44.5189 21.2863L44.8442 21.8284C45.0249 22.1175 45.2959 22.4066 45.4586 22.4427C46.1813 22.6234 47.3378 21.5573 47.7353 20.3286C48.0787 19.3167 48.2413 19.136 48.8557 19.136C49.3435 19.136 49.6507 19.7865 49.3977 20.2925C49.2893 20.5093 49.2893 20.69 49.3977 20.7984C49.6688 21.0694 50.3193 20.6358 50.4638 20.0756C50.5723 19.66 50.3012 16.0461 50.0302 14.2572C49.9398 13.6248 49.9398 13.6248 50.9156 13.3176C51.4396 13.155 51.9275 13.0827 51.9998 13.1369C52.054 13.2092 52.5419 14.4018 53.0659 15.7931C53.6622 17.329 54.0597 18.1783 54.1139 17.9615C54.1501 17.7627 54.3488 16.3533 54.5657 14.8174L54.9451 12.0346L55.9209 11.6913C56.5894 11.4745 56.9508 11.4203 57.0231 11.5468C57.0954 11.6552 57.258 12.92 57.3845 14.3656C57.6375 17.1664 57.8182 17.6724 58.4687 17.329C58.8843 17.1122 59.1915 16.5882 59.1915 16.1003C59.1915 15.9015 59.2999 15.7028 59.4444 15.6486C59.6251 15.5763 59.7155 14.9258 59.8239 13.1911C59.8962 11.601 60.0227 10.824 60.1492 10.8059C60.2757 10.8059 60.7635 10.7336 61.2514 10.6613L62.1368 10.5168L62.0103 12.0527L61.8838 13.5886L62.6247 13.4802C63.0403 13.426 63.4198 13.3356 63.474 13.2814C63.5463 13.2272 63.6366 12.5767 63.6908 11.8359C63.7631 11.095 63.8715 10.4264 63.9257 10.3542C63.998 10.2819 64.4859 10.1915 64.9918 10.1373C65.7869 10.065 65.9134 10.1012 65.823 10.318C65.7688 10.4807 65.6604 11.8178 65.5881 13.3356C65.4797 15.7028 65.4978 16.0642 65.7507 16.1726C66.1844 16.3352 66.7084 15.9557 66.9795 15.3052C67.106 14.98 67.3047 14.6186 67.4132 14.5102C67.5216 14.3837 67.8107 13.2814 68.0275 12.0166L68.4612 9.7398H69.5092C70.1055 9.7398 70.5753 9.794 70.5753 9.86628ZM93.0539 13.5344C93.5057 13.7151 93.8851 13.95 93.8851 14.0223C93.8851 14.0946 93.5238 15.2872 93.0901 16.6424C92.3312 18.9914 92.2769 19.4974 92.801 18.865C92.9275 18.7204 93.9032 17.7808 94.9693 16.7869L96.9028 14.98L97.9327 15.3956L98.9446 15.8112L97.4087 18.1602C96.5775 19.4432 95.8728 20.6358 95.8728 20.8165C95.8728 20.9972 96.0535 21.1959 96.2884 21.2863C96.7944 21.485 97.3726 21.1598 98.8181 19.8769C100.155 18.7023 101.113 18.2506 102.251 18.2325C103.209 18.2325 104.42 18.7565 104.727 19.2986C104.962 19.7504 104.962 20.5996 104.727 21.2321C104.492 21.8464 104.655 22.0271 105.576 22.1536C106.172 22.2259 106.444 22.1356 107.455 21.5031C110.256 19.7504 112.84 19.5697 113.346 21.0694C113.726 22.1898 112.696 23.6173 110.834 24.575C109.823 25.0809 109.642 25.3158 109.931 25.7495C110.148 26.0747 111.142 26.5265 111.919 26.653C112.443 26.7252 112.623 26.8337 112.551 27.0144C112.425 27.3396 111.882 27.3396 110.726 26.9963L109.804 26.7072L109.046 27.5384C108.25 28.4057 106.895 28.9659 106.064 28.8032C105.829 28.749 105.432 28.6768 105.179 28.6225C104.528 28.478 103.516 27.5203 103.281 26.8156C102.974 25.894 103.336 25.0267 104.474 23.816L105.45 22.8041L104.781 22.6054C104.131 22.4066 104.113 22.4247 103.065 23.3824C101.763 24.593 100.571 25.0267 99.4144 24.7195C98.1496 24.3762 97.3364 23.5269 97.3184 22.515C97.3184 21.9368 97.3545 21.9549 96.5052 22.3163C95.6379 22.6776 94.7886 22.5331 94.1743 21.9006C93.3792 21.1056 93.4876 20.5996 95.0597 18.0518C95.15 17.9073 94.4272 18.5216 93.4515 19.4251L91.6806 21.0875L90.741 20.7081C90.2351 20.5093 89.8014 20.3286 89.7833 20.3105C89.7653 20.2925 90.0182 19.407 90.3616 18.3048C90.7049 17.2206 90.994 16.2991 90.994 16.2449C90.994 16.1906 90.6326 16.6966 90.1989 17.3471C88.7534 19.4974 87.6331 20.0214 86.5308 19.0637C85.6093 18.2687 86.0249 16.4256 87.109 16.4256C87.6692 16.4256 87.9944 16.8592 87.8499 17.4194C87.7776 17.7085 87.615 17.8711 87.3801 17.8711C86.9825 17.8711 86.9103 18.2325 87.2355 18.5578C87.8318 19.1541 88.6088 18.4313 90.4338 15.5221C91.265 14.2391 91.9878 13.173 92.0782 13.173C92.1685 13.173 92.6022 13.3356 93.0539 13.5344ZM40.2907 19.6962C41.1219 20.3647 41.5375 21.3947 41.4471 22.6415C41.3929 23.2559 41.3026 23.8883 41.2122 24.0509C41.1038 24.322 41.1761 24.3762 41.6278 24.3762C41.9711 24.3762 42.4048 24.575 42.7662 24.8641C43.4348 25.4242 44.1937 26.9421 44.1937 27.701C44.1937 28.5683 43.5251 29.7248 42.8565 30.05C41.9711 30.4656 41.5194 30.4114 40.9231 29.8151C40.2545 29.1285 40.2184 28.225 40.8508 27.1589L41.3026 26.3819L40.8327 26.0205C40.2545 25.5688 40.2184 25.5688 39.7305 25.9121C39.3691 26.1651 39.3149 26.1651 39.1342 25.8218C38.9716 25.5146 39.0077 25.3519 39.3872 24.9002C39.9473 24.2316 39.9835 23.4908 39.5137 22.4427C39.1161 21.6115 38.4295 21.0514 37.9777 21.2321C37.5621 21.3947 37.1646 22.1898 36.9658 23.3281C36.8032 24.1413 36.8394 24.3943 37.255 25.4242C37.8332 26.8879 37.8151 28.5683 37.2188 29.3815C36.5502 30.2669 35.701 30.7367 34.8517 30.6644L34.0747 30.6102V31.3872C34.0747 32.7424 33.2074 33.7724 32.069 33.7724C31.6895 33.7724 30.6053 32.8147 30.0994 32.0016L29.8283 31.586L29.2501 32.1823L28.6538 32.7966L29.6657 34.2964L30.6595 35.7781L29.9368 36.5732C29.485 37.0611 29.1598 37.2779 29.0513 37.1695C28.9429 37.0611 28.8526 37.2779 28.7803 37.7658C28.5996 39.1391 27.66 39.9341 26.5577 39.6631C25.9795 39.5185 25.2748 38.8319 23.2691 36.4286L21.9319 34.8746L22.5282 34.0434C22.8535 33.5917 23.1787 33.2484 23.251 33.2664C23.3233 33.3026 24.2087 34.2783 25.2206 35.4348C26.2144 36.6093 27.154 37.567 27.2805 37.567C27.7142 37.567 27.9672 37.0611 27.8768 36.4467C27.8226 36.1214 27.7503 35.6878 27.7142 35.489C27.6781 35.2902 27.0276 34.188 26.2686 33.0315L24.8773 30.9355L25.6543 30.1765L26.4313 29.4176L27.2805 30.7186L28.1479 32.0016L28.6719 31.4956C28.961 31.2246 29.1959 30.8993 29.1959 30.809C29.1959 30.7006 28.8707 30.1223 28.4731 29.526C28.0756 28.9297 27.7503 28.3515 27.7503 28.2431C27.7503 27.9178 28.9971 26.8156 29.1778 27.0144C29.2682 27.1047 29.991 28.1708 30.8041 29.3815C32.3581 31.7305 32.7918 32.0558 33.1893 31.1704C33.3519 30.827 33.3158 30.5199 32.9905 29.6887C32.0328 27.1589 31.9244 26.7614 31.9244 25.9121C31.9063 24.4123 32.7556 23.039 33.9482 22.5873C34.5264 22.3705 35.2131 22.5692 35.8275 23.1475L36.225 23.5269L36.3153 23.0932C36.3695 22.8583 36.4418 22.2982 36.5141 21.8464C36.6406 20.8707 37.2007 19.9491 37.8332 19.5877C38.556 19.2083 39.7124 19.2444 40.2907 19.6962ZM71.8583 27.1408C73.9363 28.5322 73.2316 31.8209 70.756 32.2365C69.8887 32.381 68.5515 31.8028 67.9914 31.0439C67.124 29.8513 67.63 27.7371 68.9491 27.0505C69.8345 26.5988 71.0994 26.6168 71.8583 27.1408ZM117.502 32.381L118.875 33.9712L118.171 33.8627C117.773 33.7905 117.213 33.682 116.906 33.6098C116.472 33.5375 115.713 32.8689 113.96 31.0258L111.575 28.5503L112.262 28.0985L112.949 27.6649L114.539 29.2188C115.424 30.0862 116.743 31.5137 117.502 32.381ZM119.309 35.2722C122.598 36.2118 124.423 38.0187 124.423 40.3136C124.423 43.6926 120.466 46.2404 115.207 46.2404C112.894 46.2404 111.846 45.9332 111.051 45.0478C110.383 44.2708 110.292 43.2047 110.871 42.6265C111.069 42.4277 111.322 42.2651 111.431 42.2651C111.846 42.2651 112.28 42.6446 112.407 43.1144C112.587 43.9275 112.985 44.3973 113.816 44.831C114.448 45.1743 114.846 45.2285 116.201 45.2285C118.369 45.2105 119.598 44.7406 120.682 43.53C123.104 40.8376 121.477 37.2056 117.303 36.013C115.677 35.5613 112.063 35.742 109.877 36.3744C106.389 37.4044 101.312 40.3678 96.6859 44.1082C95.4933 45.0478 92.7648 47.415 90.6326 49.3303C80.7666 58.2206 76.7913 61.3466 72.2739 63.786C71.0271 64.4546 70.5573 64.816 70.3946 65.2135C70.1778 65.7195 70.2139 65.7737 71.3885 66.8579C73.7375 69.0624 76.5744 74.1038 79.6101 81.4762C85.0491 94.6309 88.0306 99.2567 93.0359 102.31C95.5475 103.828 99.5229 104.497 101.926 103.792C104.257 103.124 106.118 101.768 107.708 99.6362C108.25 98.8953 108.901 98.1544 109.154 97.9918C110.256 97.269 111.124 98.4255 110.69 100.016C109.786 103.196 104.275 105.455 98.2761 105.075C92.9094 104.75 89.1328 103.087 85.3744 99.3651C81.5436 95.5886 78.7789 90.5471 75.3999 81.1871C74.7494 79.4162 73.8459 76.9768 73.3942 75.7843C72.3642 73.11 70.1778 68.6468 69.6899 68.2131C69.3285 67.8878 69.3105 67.8878 69.1478 68.3034C67.6661 72.0981 64.0522 80.2475 62.3175 83.7168C59.0831 90.1677 54.2223 96.4559 49.8856 99.7446C43.1276 104.912 35.6106 107.533 28.4731 107.262C25.4374 107.135 24.1183 106.846 22.0223 105.87C16.4207 103.25 15.2462 96.8534 19.5467 92.5348C21.5525 90.5291 24.4255 89.5172 27.7503 89.6437C29.1778 89.6979 29.6296 89.8063 30.4608 90.2219C32.4123 91.1976 33.5145 92.6974 33.5326 94.3418C33.5326 95.4079 32.8279 96.3294 32.0148 96.3294C31.2378 96.3294 30.9848 95.9319 30.8222 94.4321C30.4969 91.6313 29.5031 90.764 26.7746 90.9085C25.1483 90.9989 24.3532 91.3241 23.1064 92.4083C21.5344 93.7635 20.649 96.6185 21.0465 99.0579C21.7332 103.25 25.0218 105.689 29.9368 105.689C34.9782 105.689 40.2726 103.449 45.3321 99.2025C50.8975 94.5044 54.2223 89.3184 61.1791 74.429C62.4982 71.5921 63.8896 68.6648 64.269 67.9059L64.9557 66.5326L64.1968 66.6772C62.8957 66.9301 60.4925 66.8759 59.9143 66.5687C59.4264 66.3158 58.8662 65.2316 59.0831 64.8883C59.1192 64.816 59.5348 64.563 59.9865 64.3462C61.1249 63.768 62.7873 63.5331 64.522 63.6957C65.3171 63.786 66.0218 63.8402 66.076 63.8583C66.1483 63.8583 66.9614 62.3585 67.901 60.5154C73.4665 49.511 79.5379 42.3193 85.808 39.2656C86.3682 38.9764 86.838 38.6873 86.838 38.615C86.838 38.3982 84.5612 37.7658 82.3206 37.3502C79.4656 36.8262 73.1051 36.7719 70.6657 37.2598C66.2206 38.1452 62.0645 39.898 58.035 42.5723C48.7834 48.716 41.1038 60.3889 40.634 69.0081C40.4171 72.8931 41.6459 75.5132 44.1756 76.6516C45.2237 77.1214 48.4401 77.3021 49.9579 76.9588C53.9332 76.0914 56.3003 72.9473 56.0835 68.8455C56.0112 67.6891 55.8667 67.0024 55.5233 66.1712C55.2523 65.5568 55.0355 64.8702 55.0355 64.6714C55.0355 64.1113 55.8305 63.4066 56.463 63.4066C57.9447 63.4066 58.6855 64.4004 58.7939 66.5687C58.8843 68.3757 58.559 69.8213 57.5471 71.8993C56.9328 73.1642 56.4991 73.7243 55.1439 75.0615C52.4154 77.79 49.8133 78.82 45.7296 78.8019C40.8508 78.8019 37.9416 77.3925 36.2792 74.2845C33.2074 68.5203 36.8574 58.4916 45.2598 49.6194C51.8371 42.6988 60.9442 37.7116 70.0332 36.1034C73.0689 35.5613 78.2369 35.4348 81.399 35.8323C85.3924 36.3563 89.0606 37.6031 89.2955 38.5608C89.44 39.1571 89.3316 39.2656 88.3378 39.645C84.0372 41.2171 80.1161 45.3008 76.3034 52.1311C74.912 54.6247 72.1113 60.66 72.2739 60.8226C72.3462 60.8949 73.3942 60.0275 76.8094 57.0099C87.5066 47.6137 89.3497 46.0597 92.6203 43.6745C99.035 39.0126 105.486 36.0492 111.142 35.1276C113.183 34.8024 117.936 34.8927 119.309 35.2722ZM22.0403 43.1144C23.3413 44.1986 24.1906 43.6745 23.3956 42.2651C22.8173 41.2351 23.1787 40.9099 23.8473 41.8676C25.1302 43.7287 24.6785 45.879 22.998 45.879C22.6186 45.879 22.4921 45.9513 22.5644 46.132C23.2871 47.9932 22.221 49.7098 20.5406 49.4026C18.4445 49.0231 16.3665 46.6199 16.3665 44.578C16.3665 43.53 16.8724 42.4458 17.3784 42.4458C17.5591 42.4458 17.6133 42.3374 17.541 42.1206C17.4868 41.9218 17.6494 41.4158 17.9205 40.928L18.3903 40.0968L19.8539 41.3074C20.667 41.976 21.6609 42.7891 22.0403 43.1144ZM126.121 45.4634C131.036 55.2933 133.15 67.8878 131.741 79.1271C131.289 82.7411 129.934 88.9931 129.482 89.481C129.338 89.6437 128.037 89.0835 128.037 88.8486C128.037 88.7763 128.326 87.6199 128.669 86.3188C130.856 77.8984 131.072 68.9178 129.284 59.9733C128.452 55.7993 126.537 50.0893 124.856 46.7464C124.513 46.0778 124.242 45.4454 124.242 45.3369C124.242 45.1562 125.164 43.8914 125.272 43.8914C125.308 43.8914 125.688 44.5961 126.121 45.4634ZM16.8905 49.0593C18.9866 50.1796 19.4925 50.3964 19.7094 50.2157C19.8539 50.0893 19.9804 49.8724 19.9804 49.7459C19.9804 49.3484 20.4683 49.4568 20.7755 49.8905C21.1911 50.4687 21.1369 51.5168 20.7032 51.9866C20.0165 52.7094 19.095 52.5287 16.6917 51.2276C14.5595 50.0712 14.162 50.017 14.6137 50.9566C14.8667 51.4625 15.7521 52.1131 17.7217 53.2514C18.842 53.9019 19.2395 54.2633 19.5106 54.7874C19.7997 55.4017 19.8178 55.5463 19.5829 56.1426C19.4383 56.5762 19.1492 56.9015 18.7878 57.0822L18.2457 57.3532V59.1602C18.2638 61.2382 17.9385 62.1417 16.9808 62.7741L16.4207 63.1536L17.017 63.8222C17.812 64.6714 17.8843 65.8098 17.1977 66.6049C16.8182 67.0386 16.6556 67.1108 15.9689 67.0566C13.9813 66.894 13.7645 66.9121 13.6922 67.2554C13.5476 67.942 14.1078 68.3757 15.716 68.8275L17.27 69.2611L17.1435 70.273C17.0893 70.8151 17.017 71.303 16.9808 71.3211C16.9628 71.3572 16.1135 71.1404 15.1197 70.8332C14.1078 70.526 12.4815 70.02 11.5057 69.7309L9.71686 69.1708L9.8072 68.1408C9.86141 67.5806 9.91562 67.0928 9.95176 67.0747C9.96983 67.0386 10.5842 67.2193 11.307 67.4722C12.0298 67.7252 12.6622 67.9059 12.6803 67.8698C12.7164 67.8517 12.1743 67.1831 11.4877 66.4061C10.1686 64.9244 9.84334 64.1293 10.2047 63.4246C10.4396 62.991 11.4515 62.9006 11.8129 63.262C12.1563 63.6053 12.0659 64.2558 11.6503 64.545C11.1986 64.8702 11.3251 65.1955 12.1924 66.0086C12.7164 66.5145 12.7526 66.5145 12.7526 66.1531C12.7526 65.5388 13.132 64.8883 13.5476 64.7799C13.7464 64.7256 14.3969 64.7799 14.9751 64.8883C16.0593 65.1232 16.3484 64.9967 16.3665 64.3462C16.3665 63.9487 15.3365 63.0994 14.1801 62.5392C12.3731 61.6719 11.1082 60.0998 11.0901 58.7265C11.0721 57.5159 11.1263 57.299 11.6142 56.7208C12.0659 56.1787 12.1563 56.1426 13.0959 56.2149C14.3427 56.3052 15.8967 56.9919 16.9086 57.9134L17.6856 58.6181L17.5771 57.9495C17.5229 57.5159 17.288 57.1003 16.9628 56.8292C16.5291 56.4498 16.493 56.3594 16.6917 55.9257C16.9447 55.3475 17.7036 55.2752 18.0289 55.8173C18.318 56.2691 18.4806 56.2691 18.6975 55.8354C18.9685 55.3294 18.4083 54.7151 16.9447 53.9019C14.3427 52.4564 13.4753 51.6252 13.4753 50.5591C13.4753 50.0893 14.1439 47.686 14.2704 47.686C14.3246 47.686 15.4991 48.3004 16.8905 49.0593ZM9.33739 71.9896C10.8733 72.1342 12.4634 72.2968 12.8971 72.333C13.3127 72.3872 14.3607 72.4775 15.192 72.5498C16.0412 72.6221 16.8001 72.7666 16.8905 72.875C16.9628 72.9835 17.0893 73.5978 17.1615 74.2483C17.2338 74.8988 17.4687 77.0491 17.7036 79.0368C17.9385 81.0244 18.1012 82.6868 18.065 82.723C18.047 82.7411 15.7702 82.5604 13.0236 82.2893C10.277 82.0183 7.98217 81.8556 7.90989 81.9279C7.83762 82.0002 8.09059 82.3255 8.45198 82.6507C9.28319 83.4277 10.4035 83.753 11.4515 83.5C12.1743 83.3374 12.2105 83.3554 12.2105 83.753C12.2105 84.801 10.7288 85.2527 9.3916 84.6203C8.16287 84.0421 6.82572 82.0363 6.51853 80.3378C6.35591 79.5247 5.84996 79.5427 11.8491 80.121C14.3788 80.3739 16.5291 80.5727 16.6195 80.5727C16.764 80.5727 16.6737 79.0187 16.5291 78.8561C16.4568 78.8019 13.3669 78.4586 8.66882 78.0249L6.28363 77.79L6.17521 77.1575C5.94031 75.6758 5.94031 75.6578 7.11483 75.7843C12.2285 76.3083 15.3546 76.5974 15.8244 76.5974H16.3665L16.24 75.73C16.1858 75.2602 16.1135 74.8446 16.0774 74.8085C16.0412 74.7724 13.7283 74.5194 10.9275 74.2303C8.1448 73.9592 5.83189 73.7062 5.81382 73.6701C5.77768 73.652 5.7054 73.1822 5.65119 72.6582C5.5247 71.5379 5.21752 71.5921 9.33739 71.9896ZM14.5595 85.3069C14.9932 87.0597 16.24 91.1254 16.6375 92.1553L17.0712 93.2576L16.5652 94.1611C16.2761 94.6489 16.0051 94.9742 15.9328 94.8838C15.4088 94.0165 12.7526 85.7045 12.7526 84.8913C12.7526 84.7287 13.2043 84.6022 13.8729 84.5661C14.3065 84.548 14.3969 84.6384 14.5595 85.3069ZM125.995 90.782C127.422 91.7578 128.416 92.318 128.651 92.2818C129.193 92.2095 129.247 91.4868 128.76 90.8362C128.525 90.511 128.416 90.1857 128.488 90.005C128.579 89.7521 128.687 89.8063 129.121 90.3303C129.862 91.2157 130.277 92.336 130.133 93.0949C129.988 93.9081 129.41 94.4863 128.76 94.4863C128.127 94.4863 128.145 94.4682 128.488 95.1368C128.633 95.4259 128.76 95.8415 128.76 96.0764C128.76 96.5462 128.326 97.6485 128.091 97.7931C127.693 98.046 126.862 98.0641 126.338 97.8473C125.886 97.6666 122.02 95.1187 121.477 94.667C121.369 94.5767 121.929 92.9865 122.164 92.7155C122.2 92.6793 123.266 93.3479 124.531 94.2153C126.844 95.7693 127.513 96.0042 127.639 95.3356C127.748 94.7574 127.169 94.1611 124.965 92.6793C123.772 91.8662 122.797 91.1615 122.797 91.1073C122.797 90.9447 123.574 89.2461 123.646 89.2461C123.682 89.2461 124.748 89.9328 125.995 90.782ZM122.291 97.8473C123.375 98.3893 124.766 99.7265 125.2 100.666C125.796 101.949 125.417 103.883 124.459 104.352C124.079 104.551 124.098 104.587 125.182 105.527C125.796 106.069 126.41 106.593 126.573 106.701C126.808 106.882 126.808 107.045 126.591 107.93C126.465 108.49 126.284 108.996 126.23 109.032C126.085 109.123 117.195 101.425 117.195 101.226C117.195 101.172 117.412 100.738 117.683 100.251L118.153 99.3651L118.586 99.7626L119.002 100.142V99.5819C119.002 99.2748 119.128 98.7327 119.291 98.3893C119.833 97.2871 120.827 97.1064 122.291 97.8473ZM117.448 104.081C117.701 104.28 118.044 104.696 118.189 104.967C118.532 105.635 118.532 107.153 118.189 107.984C118.044 108.328 117.918 108.689 117.918 108.761C117.918 108.996 119.128 109.538 119.436 109.43C120.032 109.195 120.447 108.183 120.447 106.9C120.447 105.509 120.682 105.328 120.972 106.485C121.369 108.111 121.134 109.611 120.321 110.586C119.201 111.905 117.918 111.851 116.472 110.388C114.412 108.346 113.997 105.942 115.406 104.334C116.057 103.593 116.725 103.503 117.448 104.081ZM25.6001 108.852C26.1241 108.942 26.4674 109.231 27.407 110.315C28.0395 111.074 29.5754 112.664 30.8222 113.875C37.1646 120.055 44.5912 124.59 53.2827 127.608C53.5718 127.716 53.5538 127.789 53.1201 128.439L52.6503 129.162L51.1866 128.62C42.4409 125.403 34.8698 120.488 28.4551 113.857C26.3409 111.689 23.9557 108.924 23.9557 108.671C23.9557 108.599 24.1726 108.599 24.4617 108.653C24.7327 108.707 25.2387 108.797 25.6001 108.852ZM113.111 109.141C113.635 109.556 113.726 110.225 113.31 110.568C113.075 110.749 112.967 110.713 112.659 110.315C112.461 110.062 112.135 109.845 111.937 109.845C111.413 109.845 111.485 111.074 112.063 112.249C112.659 113.423 113.653 114.67 114.123 114.815C115.009 115.104 115.93 113.893 115.93 112.429C115.93 111.526 116.147 111.074 116.382 111.472C116.436 111.562 116.49 112.213 116.508 112.899C116.526 114.923 115.514 116.531 114.051 116.802C113.256 116.965 112.551 116.585 111.611 115.519C109.823 113.477 109.66 110.568 111.268 109.213C111.919 108.671 112.479 108.635 113.111 109.141ZM102.649 114.995C102.071 118.537 102.071 118.41 102.739 118.067C104.149 117.344 104.98 117.977 105.703 120.38C106.227 122.097 106.552 122.621 107.13 122.711C107.492 122.765 107.437 122.838 106.733 123.362C105.847 124.012 105.269 124.084 104.871 123.615C104.709 123.452 104.329 122.53 104.022 121.573C103.679 120.507 103.281 119.675 103.01 119.422C102.595 119.025 102.559 119.025 102.107 119.314C101.854 119.477 101.655 119.639 101.655 119.675C101.655 119.766 103.083 123.741 103.354 124.373L103.625 125.024L102.83 125.566C102.396 125.855 101.962 126.108 101.872 126.108C101.782 126.108 100.95 124.012 100.029 121.446C99.1073 118.898 98.3122 116.73 98.2761 116.658C98.1315 116.423 97.7159 117.128 97.5894 117.814C97.4268 118.663 97.752 119.802 98.3483 120.507C98.8724 121.139 98.7278 121.41 97.8243 121.41C97.0473 121.41 96.4149 120.507 96.4149 119.35C96.4149 118.158 96.6498 117.435 97.4449 116.242C98.0954 115.248 99.3964 114.2 99.6494 114.471C99.7397 114.562 100.137 115.519 100.517 116.604L101.239 118.573L101.348 117.688C101.42 117.2 101.511 115.971 101.583 114.941L101.709 113.08L102.342 112.646C102.703 112.393 103.01 112.231 103.028 112.249C103.065 112.267 102.884 113.514 102.649 114.995ZM108.413 115.519C109.823 118.158 110.13 118.591 110.545 118.429C110.961 118.266 111.25 117.344 111.051 116.802C110.943 116.495 110.961 116.314 111.142 116.17C111.467 115.899 111.593 116.152 111.72 117.326C111.846 118.591 111.72 119.097 111.033 119.874C110.292 120.705 109.335 120.76 108.612 120.001C108.142 119.495 105.63 114.977 105.63 114.634C105.648 114.507 107.022 113.297 107.202 113.279C107.221 113.279 107.763 114.291 108.413 115.519ZM60.9623 121.482C61.1249 121.573 60.4744 123.036 58.6313 126.614C57.24 129.361 56.0474 131.656 56.0112 131.692C55.9209 131.8 53.9513 131.348 53.9513 131.222C53.9513 131.168 55.0174 129.053 56.3184 126.542C57.6013 124.012 58.5771 121.952 58.4687 121.952C58.1434 121.952 56.9508 122.621 56.6437 122.964C56.1738 123.506 55.7763 124.392 55.7221 125.006C55.6679 125.656 55.3788 125.729 54.8548 125.205C53.7706 124.12 55.0174 122.205 57.258 121.482C58.035 121.229 60.5648 121.229 60.9623 121.482ZM91.8975 125.566C92.1505 128.24 92.295 128.819 92.7106 128.819C93.1624 128.819 93.7044 128.132 93.7044 127.554C93.7044 127.174 93.7948 127.012 93.9936 127.012C94.4814 127.012 94.1923 128.692 93.596 129.487C92.7468 130.607 91.3193 130.879 90.741 130.047C90.4881 129.704 90.47 129.722 90.1628 130.355C89.5846 131.601 88.2294 132.053 87.3259 131.33C86.7296 130.879 86.5489 130.21 86.2959 127.554C86.1875 126.415 86.061 125.259 86.0068 124.988C85.9164 124.536 85.9707 124.482 86.9103 124.193C87.4704 124.012 87.9583 123.904 87.9944 123.958C88.0306 123.994 88.1932 125.223 88.3378 126.668C88.6811 129.722 88.7353 129.939 89.2593 129.867C90.0363 129.758 90.1267 129.072 89.8195 126.18C89.6569 124.735 89.5846 123.488 89.6388 123.416C89.7111 123.362 90.1267 123.181 90.5965 123.018C91.1928 122.819 91.4819 122.783 91.5542 122.928C91.6084 123.036 91.771 124.229 91.8975 125.566ZM63.3294 125.132C63.8354 125.241 63.9076 125.313 63.8173 125.656C63.7089 126.054 63.745 126.072 64.7569 125.982C65.6965 125.891 65.8592 125.927 66.347 126.343C66.8349 126.777 66.8711 126.885 66.853 128.042C66.7988 130.915 64.9738 133.336 62.8596 133.336C62.6789 133.336 62.2272 133.191 61.8838 133.011L61.2514 132.685L60.6551 134.348C60.113 135.884 60.0227 136.01 59.5167 136.119C58.7036 136.281 57.7098 136.245 57.782 136.065C57.8182 135.992 58.7217 133.462 59.8239 130.463C61.7393 125.187 61.8116 125.024 62.2814 125.024C62.5524 125.024 63.0222 125.078 63.3294 125.132ZM83.4951 128.06C83.3867 130.553 83.4048 130.951 83.6577 131.15C84.0553 131.493 84.8323 130.969 84.9768 130.264C85.0491 129.885 85.1756 129.722 85.4105 129.722C85.6996 129.722 85.7357 129.812 85.6454 130.21C85.4647 131.005 84.7961 132.089 84.2721 132.487C83.5313 133.029 82.3567 132.975 81.8327 132.36C81.4894 131.945 81.4171 131.674 81.4171 130.626C81.4171 129.288 81.5075 129.361 80.2968 129.614C79.827 129.722 79.8089 129.758 79.6824 131.529C79.6282 132.523 79.5198 133.372 79.4475 133.408C79.3933 133.444 78.9054 133.535 78.3814 133.607L77.4237 133.734L77.5141 132.234C77.5683 131.403 77.6767 129.686 77.7309 128.421C77.8574 125.891 77.749 126.054 79.2126 125.837L80.0077 125.711L79.8812 127.265L79.7547 128.837L80.5317 128.71C80.9654 128.638 81.3629 128.566 81.399 128.511C81.4532 128.475 81.5255 127.771 81.5617 126.921C81.652 125.241 81.5978 125.313 83.1157 125.223L83.6397 125.205L83.4951 128.06ZM71.6595 126.433C71.6595 126.524 71.4246 127.789 71.1174 129.234C70.8283 130.698 70.6295 132.017 70.6838 132.161C70.8464 132.577 71.6234 132.487 71.9306 132.017C72.0751 131.782 72.4004 130.589 72.6533 129.343C72.9063 128.114 73.1412 126.921 73.1954 126.686C73.2858 126.325 73.3942 126.289 74.388 126.289C75.3457 126.289 75.4722 126.325 75.3819 126.596C75.0747 127.698 74.3338 131.908 74.4242 132.143C74.4964 132.306 74.7494 132.433 75.0024 132.433C75.3457 132.433 75.5625 132.27 75.8336 131.8C76.2673 131.077 76.8274 130.915 76.6106 131.565C76.3757 132.342 75.5987 133.318 75.0024 133.589C73.7917 134.167 72.4004 133.77 72.3823 132.83C72.3642 132.559 72.3281 132.559 72.057 132.884C71.4969 133.553 70.8644 133.878 70.1597 133.878C69.2563 133.878 68.8407 133.643 68.6238 133.011C68.407 132.396 68.4612 131.981 69.0575 128.764L69.5273 126.289H70.5934C71.1716 126.289 71.6595 126.361 71.6595 126.433Z" fill="#033D20"/>
<path d="M101.745 20.1298C100.752 20.8165 99.7216 22.0452 99.559 22.6957C99.4145 23.2197 99.7578 23.6534 100.3 23.6534C101.113 23.6534 103.119 21.9548 102.848 21.5031C102.721 21.3043 103.263 20.5815 103.534 20.5815C103.805 20.5815 103.986 20.0937 103.878 19.7142C103.715 19.2805 102.649 19.4793 101.745 20.1298Z" fill="#033D20"/>
<path d="M110.527 21.8464C109.208 22.5692 107.763 23.6895 106.408 25.0086C105.486 25.894 105.269 26.2192 105.269 26.6891C105.269 28.0262 107.564 27.8455 108.196 26.4541C108.377 26.0566 108.359 25.9482 108.016 25.7133C107.203 25.1531 107.889 24.0328 108.829 24.3942C109.335 24.5749 109.985 24.2677 111.377 23.1655C112.316 22.3885 112.605 21.9187 112.298 21.5573C111.991 21.1778 111.63 21.2501 110.527 21.8464Z" fill="#033D20"/>
<path d="M33.9302 23.6896C33.2977 24.322 34.0024 27.159 35.0505 28.3154C35.5564 28.8575 35.6829 28.9117 36.0082 28.731C36.5683 28.4419 36.6587 27.683 36.2792 26.4543C36.0443 25.6231 35.8455 25.3159 35.4661 25.1352C35.0324 24.9183 34.8698 24.6112 34.9601 24.1233C34.9963 23.9064 34.5987 23.4728 34.3638 23.4728C34.2373 23.4728 34.0566 23.5631 33.9302 23.6896Z" fill="#033D20"/>
<path d="M60.9985 64.7256C59.6072 65.1954 60.3661 66.0085 62.1731 65.9724C63.3657 65.9543 65.8412 65.2677 65.5882 65.0328C65.0642 64.5449 62.1008 64.3461 60.9985 64.7256Z" fill="#033D20"/>
<path d="M17.8483 43.0241C17.0532 43.8191 18.5349 46.0778 20.4142 46.9632C20.9382 47.1981 21.2273 47.2523 21.4622 47.1259C21.8236 46.9271 21.8959 46.2224 21.6068 45.6984C21.408 45.337 18.4265 42.8072 18.1916 42.8072C18.1193 42.8072 17.9748 42.8976 17.8483 43.0241Z" fill="#033D20"/>
<path d="M12.1745 57.3713C11.6324 57.9133 12.9334 59.5035 14.6139 60.3347C15.7884 60.9129 16.3486 61.0033 16.6919 60.6599C17.3424 60.0094 16.4209 58.7626 14.6681 57.8953C13.6381 57.3893 12.3913 57.1364 12.1745 57.3713Z" fill="#033D20"/>
<path d="M119.942 99.582C119.634 99.8892 119.671 100.54 120.05 100.937C120.213 101.136 120.99 101.859 121.767 102.527C123.339 103.901 123.736 103.955 123.845 102.78C123.917 101.949 123.122 100.865 121.857 99.9976C120.863 99.329 120.303 99.2206 119.942 99.582Z" fill="#033D20"/>
<path d="M63.4741 127.156C63.0765 127.59 61.6852 131.348 61.7936 131.655C61.9562 132.035 62.8958 131.927 63.4018 131.457C64.3776 130.553 65.2088 128.114 64.8112 127.265C64.5763 126.741 63.8897 126.686 63.4741 127.156Z" fill="#033D20"/>
</svg>
