<svg width="60" height="45" viewBox="0 0 60 45" fill="none" xmlns="http://www.w3.org/2000/svg">
<g clip-path="url(#clip0_31_47)">
<path d="M54.0308 21.3126L54.0408 17.7083L36.6344 17.6823L36.6244 21.2866L54.0308 21.3126Z" fill="#FF9100"/>
<path d="M54.0142 27.3197L54.0242 23.7154L36.6178 23.6895L36.6079 27.2938L54.0142 27.3197Z" fill="#FF9100"/>
<path d="M23.3138 21.2669L23.3238 17.6626L5.91746 17.6367L5.90748 21.2409L23.3138 21.2669Z" fill="#FF9100"/>
<path d="M23.2971 27.274L23.307 23.6697L5.90067 23.6438L5.89069 27.2481L23.2971 27.274Z" fill="#FF9100"/>
<path d="M28.4166 27.2829L23.5019 27.2742L23.4602 40.0394L28.3749 40.048L28.4166 27.2829Z" fill="#FF9100"/>
<path d="M36.6079 27.2973L31.6931 27.2886L31.6514 40.0538L36.5661 40.0624L36.6079 27.2973Z" fill="#FF9100"/>
<path d="M28.2738 4.90604L23.359 4.8974L23.3173 17.6625L28.232 17.6712L28.2738 4.90604Z" fill="#FF9100"/>
<path d="M36.465 4.92045L31.5503 4.9118L31.5086 17.6769L36.4233 17.6856L36.465 4.92045Z" fill="#FF9100"/>
<path d="M5.89075 27.248L5.85538 40.0132L0.121521 40.0045L0.156891 27.2394L5.89075 27.248Z" fill="#D46363"/>
<path d="M23.4549 44.2444L0.109863 44.2096L0.121515 40.0045L23.4665 40.0393L23.4549 44.2444Z" fill="#D46363"/>
<path d="M36.5741 40.017L53.9806 40.043L53.9688 44.2478L36.5625 44.222L36.5741 40.017Z" fill="#D46363"/>
<path d="M59.7501 27.1361L59.7027 44.2564L53.9688 44.2478L54.0162 27.1276L59.7501 27.1361Z" fill="#D46363"/>
<path d="M54.0408 17.7083L54.0762 4.94318L59.8101 4.95173L59.7747 17.7169L54.0408 17.7083Z" fill="#D56363"/>
<path d="M36.4768 0.711975L59.8217 0.746766L59.8101 4.95175L36.4651 4.91697L36.4768 0.711975Z" fill="#D56363"/>
<path d="M23.359 4.89742L5.95274 4.8715L5.9644 0.666504L23.3707 0.692443L23.359 4.89742Z" fill="#D46363"/>
<path d="M0.183105 17.7783L0.230546 0.657959L5.9644 0.666504L5.91697 17.7868L0.183105 17.7783Z" fill="#D46363"/>
<path d="M28.1721 23.9177C29.1908 24.6442 30.8196 24.6275 31.8101 23.8804C32.8007 23.1334 32.7779 21.9389 31.7593 21.2125C30.7406 20.486 29.1118 20.5027 28.1213 21.2498C27.1307 21.9968 27.1535 23.1913 28.1721 23.9177Z" fill="#D46363"/>
</g>
<defs>
<clipPath id="clip0_31_47">
<rect width="60" height="43.7223" fill="white" transform="translate(0 0.654358)"/>
</clipPath>
</defs>
</svg>
